<svg xmlns="http://www.w3.org/2000/svg" viewBox="0 0 512 512" width="512" height="512">
  <defs>
    <linearGradient id="grad1" x1="0%" y1="0%" x2="100%" y2="100%">
      <stop offset="0%" style="stop-color:#667eea;stop-opacity:1" />
      <stop offset="100%" style="stop-color:#764ba2;stop-opacity:1" />
    </linearGradient>
  </defs>
  
  <!-- Background Circle -->
  <circle cx="256" cy="256" r="240" fill="url(#grad1)"/>
  
  <!-- Clipboard/Document Base -->
  <rect x="140" y="120" width="232" height="280" rx="20" fill="#ffffff"/>
  
  <!-- Clipboard Top Clip -->
  <rect x="200" y="100" width="112" height="40" rx="8" fill="#667eea"/>
  <circle cx="256" cy="120" r="8" fill="#ffffff"/>
  
  <!-- Document Lines (Event List) -->
  <rect x="180" y="180" width="152" height="16" rx="4" fill="#667eea" opacity="0.8"/>
  <rect x="180" y="220" width="120" height="16" rx="4" fill="#764ba2" opacity="0.6"/>
  <rect x="180" y="260" width="140" height="16" rx="4" fill="#667eea" opacity="0.8"/>
  <rect x="180" y="300" width="100" height="16" rx="4" fill="#764ba2" opacity="0.6"/>
  
  <!-- Checkmarks -->
  <path d="M 165 185 L 172 192 L 182 178" stroke="#28a745" stroke-width="5" fill="none" stroke-linecap="round" stroke-linejoin="round"/>
  <path d="M 165 225 L 172 232 L 182 218" stroke="#28a745" stroke-width="5" fill="none" stroke-linecap="round" stroke-linejoin="round"/>
  
  <!-- Calendar Icon Overlay (bottom right) -->
  <rect x="300" y="320" width="60" height="60" rx="8" fill="#ffffff" stroke="#667eea" stroke-width="4"/>
  <rect x="300" y="320" width="60" height="20" rx="8" fill="#667eea"/>
  <circle cx="318" cy="352" r="4" fill="#667eea"/>
  <circle cx="342" cy="352" r="4" fill="#667eea"/>
  <circle cx="318" cy="368" r="4" fill="#667eea"/>
  <circle cx="342" cy="368" r="4" fill="#667eea"/>
</svg>