<svg xmlns="http://www.w3.org/2000/svg" viewBox="0 0 512 512">
  <defs>
    <linearGradient id="bgGradBlue" x1="0%" y1="0%" x2="100%" y2="100%">
      <stop offset="0%" style="stop-color:#2563eb;stop-opacity:1" />
      <stop offset="100%" style="stop-color:#1e40af;stop-opacity:1" />
    </linearGradient>
    <filter id="shadowBlue">
      <feDropShadow dx="0" dy="4" stdDeviation="8" flood-opacity="0.3"/>
    </filter>
  </defs>
  
  <!-- Background with rounded corners -->
  <rect width="512" height="512" fill="url(#bgGradBlue)" rx="110"/>
  
  <!-- Clipboard base -->
  <g filter="url(#shadowBlue)">
    <!-- Clipboard body -->
    <rect x="120" y="100" width="272" height="330" fill="white" rx="15"/>
    
    <!-- Clipboard clip -->
    <rect x="200" y="80" width="112" height="50" fill="#dbeafe" rx="8"/>
    <rect x="210" y="90" width="92" height="30" fill="white" rx="5"/>
  </g>
  
  <!-- Title line -->
  <rect x="150" y="145" width="140" height="14" fill="#2563eb" rx="7"/>
  <rect x="300" y="145" width="60" height="14" fill="#93c5fd" rx="7"/>
  
  <!-- Person 1 - Black woman with checkmark -->
  <g>
    <!-- Head -->
    <circle cx="170" cy="205" r="12" fill="#4a2c1b"/>
    <!-- Hair/Afro -->
    <circle cx="170" cy="202" r="14" fill="#2d1810"/>
    <circle cx="164" cy="198" r="8" fill="#2d1810"/>
    <circle cx="176" cy="198" r="8" fill="#2d1810"/>
    <!-- Body -->
    <rect x="162" y="217" width="16" height="23" fill="#6b7280" rx="3"/>
    <!-- Checkmark -->
    <circle cx="205" cy="215" r="15" fill="#10b981"/>
    <polyline points="198,215 203,220 212,210" fill="none" stroke="white" stroke-width="3" stroke-linecap="round" stroke-linejoin="round"/>
    <!-- Name line -->
    <rect x="230" y="210" width="100" height="8" fill="#d1d5db" rx="4"/>
  </g>
  
  <!-- Person 2 - Black man with checkmark -->
  <g>
    <!-- Head -->
    <circle cx="170" cy="275" r="12" fill="#5a3825"/>
    <!-- Hair -->
    <ellipse cx="170" cy="270" rx="13" ry="10" fill="#1a1410"/>
    <!-- Body -->
    <rect x="162" y="287" width="16" height="23" fill="#6b7280" rx="3"/>
    <!-- Checkmark -->
    <circle cx="205" cy="285" r="15" fill="#10b981"/>
    <polyline points="198,285 203,290 212,280" fill="none" stroke="white" stroke-width="3" stroke-linecap="round" stroke-linejoin="round"/>
    <!-- Name line -->
    <rect x="230" y="280" width="90" height="8" fill="#d1d5db" rx="4"/>
  </g>
  
  <!-- Person 3 - Black child with checkmark -->
  <g>
    <!-- Head -->
    <circle cx="170" cy="345" r="12" fill="#6d4c3d"/>
    <!-- Hair with puffs -->
    <circle cx="170" cy="340" r="13" fill="#2d1810"/>
    <circle cx="162" cy="338" r="6" fill="#2d1810"/>
    <circle cx="178" cy="338" r="6" fill="#2d1810"/>
    <!-- Body -->
    <rect x="162" y="357" width="16" height="23" fill="#6b7280" rx="3"/>
    <!-- Checkmark -->
    <circle cx="205" cy="355" r="15" fill="#10b981"/>
    <polyline points="198,355 203,360 212,350" fill="none" stroke="white" stroke-width="3" stroke-linecap="round" stroke-linejoin="round"/>
    <!-- Name line -->
    <rect x="230" y="350" width="95" height="8" fill="#d1d5db" rx="4"/>
  </g>
  
  <!-- Pen/Pencil -->
  <g transform="translate(340, 360) rotate(-45)">
    <rect x="0" y="0" width="15" height="60" fill="#fbbf24" rx="2"/>
    <polygon points="7.5,60 0,70 15,70" fill="#92400e"/>
    <rect x="0" y="0" width="15" height="8" fill="#f59e0b"/>
  </g>
  
  <!-- Statistics badge with visual percentage -->
  <g>
    <circle cx="115" cy="390" r="40" fill="#2563eb"/>
    <!-- 100% represented as "1" "0" "0" using shapes -->
    <rect x="100" y="380" width="4" height="20" fill="white" rx="1"/>
    <circle cx="110" cy="390" r="8" fill="none" stroke="white" stroke-width="3"/>
    <circle cx="124" cy="390" r="8" fill="none" stroke="white" stroke-width="3"/>
    <!-- Small indicator bars for "present" -->
    <rect x="95" y="405" width="10" height="2" fill="#93c5fd" rx="1"/>
    <rect x="108" y="405" width="14" height="2" fill="#93c5fd" rx="1"/>
  </g>
</svg>
